HIERARCHY
ROOT hip
{
	OFFSET 0.000000 0.000000 0.000000 
	CHANNELS 6 Xposition Yposition Zposition Xrotation Zrotation Yrotation
	JOINT abdomen
	{
		OFFSET 0.000000 3.402643 0.000000 
		CHANNELS 3 Xrotation Zrotation Yrotation
		JOINT chest
		{
			OFFSET 0.000000 8.438565 -0.680529 
			CHANNELS 3 Xrotation Zrotation Yrotation
			JOINT neck
			{
				OFFSET 0.000000 10.207942 -0.272212 
				CHANNELS 3 Xrotation Zrotation Yrotation
				JOINT head
				{
					OFFSET 0.000000 3.130431 0.000000 
					CHANNELS 3 Xrotation Zrotation Yrotation
					End Site
					{
						OFFSET 0.000000 3.130435 0.000000 
					}
				}
			}
			JOINT lCollar
			{
				OFFSET 3.470700 6.669187 -0.816635 
				CHANNELS 3 Yrotation Zrotation Xrotation
				JOINT lShldr
				{
					OFFSET 3.198488 0.000000 0.000000 
					CHANNELS 3 Zrotation Yrotation Xrotation
					JOINT lForeArm
					{
						OFFSET 10.139888 0.000000 0.000000 
						CHANNELS 3 Yrotation Zrotation Xrotation
						JOINT lHand
						{
							OFFSET 8.370511 0.000000 0.000000 
							CHANNELS 3 Zrotation Yrotation Xrotation
							End Site
							{
								OFFSET 4.083176 0.000000 0.000000 
							}
						}
					}
				}
			}
			JOINT rCollar
			{
				OFFSET -3.470700 6.669187 -0.816635 
				CHANNELS 3 Yrotation Zrotation Xrotation
				JOINT rShldr
				{
					OFFSET -3.198488 0.000000 0.000000 
					CHANNELS 3 Zrotation Yrotation Xrotation
					JOINT rForeArm
					{
						OFFSET -10.139888 0.000000 0.000000 
						CHANNELS 3 Yrotation Zrotation Xrotation
						JOINT rHand
						{
							OFFSET -8.370511 0.000000 0.000000 
							CHANNELS 3 Zrotation Yrotation Xrotation
							End Site
							{
								OFFSET -4.083176 0.000000 0.000000 
							}
						}
					}
				}
			}
		}
	}
	JOINT lThigh
	{
		OFFSET 5.308129 -1.633274 1.361059 
		CHANNELS 3 Xrotation Zrotation Yrotation
		JOINT lShin
		{
			OFFSET -2.041588 -20.007561 0.000000 
			CHANNELS 3 Xrotation Zrotation Yrotation
			JOINT lFoot
			{
				OFFSET 0.000000 -19.190928 -1.224953 
				CHANNELS 3 Xrotation Yrotation Zrotation
				End Site
				{
					OFFSET 0.000000 -2.449906 4.627600 
				}
			}
		}
	}
	JOINT rThigh
	{
		OFFSET -5.308129 -1.633274 1.361059 
		CHANNELS 3 Xrotation Zrotation Yrotation
		JOINT rShin
		{
			OFFSET 2.041588 -20.007561 0.000000 
			CHANNELS 3 Xrotation Zrotation Yrotation
			JOINT rFoot
			{
				OFFSET 0.000000 -19.190928 -1.224953 
				CHANNELS 3 Xrotation Yrotation Zrotation
				End Site
				{
					OFFSET 0.000000 -2.449906 4.627600 
				}
			}
		}
	}
}
MOTION
Frames: 14
Frame Time: 0.033333
0.230462 51.608341 -0.333764 -6.513672 1.386719 -145.722412 24.744085 -12.390012 -9.081246 -17.529299 7.470703 -0.087891 51.063168 8.107644 2.471410 -60.185551 -15.478515 -55.781250 2.000000 -2.000000 0.000000 -62.509769 -0.507813 -15.634766 -51.103294 -1.637565 -1.964265 5.100636 66.326065 -7.139349 -2.000000 2.000000 0.000000 85.712891 -34.980469 -44.302475 132.381821 -2.444103 -2.593407 16.919682 -41.302387 -18.720900 -3.367221 -1.717445 2.815640 19.336176 -5.557600 -1.836200 -13.667179 7.389923 2.259963 -6.641478 -16.958563 -33.074409 28.503674 4.466775 2.372990 -6.914045 -12.189293 11.115779 
0.507888 51.647732 -0.226389 -6.689453 1.562531 -147.334244 25.300974 -12.184050 -9.435109 -17.705078 7.470703 -0.272168 51.063168 8.107644 2.471410 -61.611332 -16.533201 -56.093750 2.000000 -2.000000 0.000000 -62.744141 0.214844 -14.824183 -51.797215 -1.619205 -1.985172 6.415628 65.933197 -5.525259 -2.000000 2.000000 0.000000 85.898438 -35.048828 -44.556389 132.385452 -2.281328 -2.700895 17.210007 -40.946537 -18.240042 -3.215663 -1.082542 4.019515 18.971834 -5.588630 -1.788508 -14.182246 7.560865 1.853447 -8.262323 -17.067432 -32.119793 30.084982 4.398306 2.455612 -5.189585 -12.855828 9.131157 
0.700098 51.663479 -0.052374 -6.875000 1.728516 -148.759476 25.839720 -11.927268 -9.561790 -17.900391 7.304688 -0.507812 51.063168 8.107644 2.471410 -63.076176 -17.558592 -55.966801 2.000000 -2.000000 0.000000 -62.919922 0.839844 -14.101419 -52.676941 -1.601413 -2.015546 7.519045 65.687157 -4.299660 -2.000000 2.000000 0.000000 86.298828 -34.804688 -45.195313 132.557007 -2.464734 -2.575049 17.182158 -40.672470 -17.281223 -3.157560 -0.888443 5.450927 18.620615 -5.565625 -1.783223 -14.007552 7.584866 1.589633 -10.049172 -16.917572 -30.963928 32.030788 4.295363 2.596064 -3.476111 -12.719134 7.685364 
0.844807 51.671364 0.151104 -7.216797 1.728516 -150.341797 26.415184 -11.721478 -9.915912 -18.076170 7.314454 -0.545632 51.063168 8.107644 2.471410 -64.345703 -18.427732 -55.208164 2.000000 -2.000000 0.000000 -63.066410 1.347656 -13.603516 -53.384094 -1.404640 -2.163926 8.148426 65.311371 -3.518503 -2.000000 2.000000 0.000000 86.552734 -34.365234 -45.689106 132.732788 -2.464734 -2.575049 18.327600 -40.314323 -17.815313 -3.068293 -0.411092 7.009298 17.725779 -5.167902 -1.942255 -13.899113 7.380197 1.035456 -11.825757 -17.180058 -29.827282 33.768661 4.198995 2.894224 -1.371018 -12.733773 6.605512 
0.954982 51.687111 0.339746 -7.402343 1.914063 -151.777023 26.954229 -11.598205 -10.107162 -18.251953 7.158204 -0.780033 51.063168 8.107644 2.471410 -65.732422 -18.896482 -53.574219 2.000000 -2.000000 0.000000 -63.056641 1.943359 -12.480469 -54.086491 -1.267374 -2.494839 9.481430 64.757225 -2.434071 -2.000000 2.000000 0.000000 87.128906 -33.916019 -47.050777 133.083786 -2.475615 -2.556124 19.348551 -40.101334 -17.863222 -3.044532 -0.166473 7.888677 17.910280 -5.587399 -1.685371 -14.620293 7.693720 0.937369 -13.310383 -17.390085 -29.084885 35.159760 4.120250 2.828485 0.531439 -12.498647 5.450929 
1.086080 51.671364 0.425435 -7.578125 2.089844 -153.398087 27.499092 -11.253383 -10.384714 -18.427734 7.158204 -0.965580 51.063168 8.107644 2.471410 -66.992188 -19.570313 -51.357422 2.000000 -2.000000 0.000000 -63.378902 2.460938 -12.138251 -54.967800 -1.349553 -2.225811 9.994113 64.459709 -1.290320 -2.000000 2.000000 0.000000 87.783203 -33.281250 -48.140121 133.435059 -2.485931 -2.546946 20.543957 -39.737022 -18.142017 -2.888962 0.272709 9.335936 17.741148 -5.569892 -1.677119 -14.836460 7.821737 0.637642 -14.570091 -17.273998 -28.407280 36.216389 4.062046 2.924804 1.919015 -12.498135 3.920146 
1.312178 51.639851 0.366986 -7.939453 2.255859 -154.833603 27.863214 -11.142698 -10.570329 -18.613281 7.001955 -1.201172 51.063168 8.107644 2.471410 -68.193359 -19.873043 -49.091801 2.000000 -2.000000 0.000000 -63.339840 3.066406 -11.708460 -55.666691 -1.330714 -2.070453 10.845378 63.980717 -0.483591 -2.000000 2.000000 0.000000 88.515625 -32.636719 -49.394535 133.434799 -2.486497 -2.537200 22.166403 -38.768875 -18.917883 -2.690816 0.671025 10.369440 17.389498 -5.579627 -1.647449 -15.336027 7.773498 0.450643 -15.467096 -16.936333 -28.278135 36.569107 4.042468 2.753006 2.974327 -13.030539 1.466989 
2.269312 51.655605 2.038236 -8.105469 2.246094 -156.249619 28.417467 -10.786477 -10.823247 -18.613281 7.001955 -1.201172 51.063168 8.107644 2.471410 -69.394531 -20.175779 -46.936962 2.000000 -2.000000 0.000000 -63.398438 3.291016 -11.444751 -56.546432 -1.303172 -2.101395 12.048934 63.448387 0.698571 -2.000000 2.000000 0.000000 89.082031 -32.207035 -50.376301 133.610519 -2.505995 -2.538334 23.182962 -38.334873 -19.100603 -2.489015 1.092814 12.121250 16.666096 -5.198336 -1.846529 -15.052298 7.462117 -0.475893 -18.085468 -16.355841 -28.839443 36.017166 3.602637 2.914875 3.872691 -13.793361 -0.290922 
2.530406 51.561069 1.625368 -8.281249 2.431641 -157.509354 28.781143 -10.681651 -11.021505 -18.789063 7.001954 -1.406250 51.063168 8.107644 2.471410 -70.195313 -20.361324 -45.341801 2.000000 -2.000000 0.000000 -63.603516 3.222656 -12.069761 -57.426174 -1.275630 -2.132338 13.083978 62.690521 1.490102 -2.000000 2.000000 0.000000 89.785156 -31.396484 -51.616417 133.961258 -2.517443 -2.509664 24.896254 -38.047417 -19.870289 -2.077592 1.510410 13.188438 16.484596 -5.187074 -1.849733 -15.485131 7.496488 -0.593319 -21.502363 -15.474992 -29.511642 33.925030 4.023271 2.856866 0.913612 -15.166526 -1.323604 
2.841998 51.505920 1.093228 -8.447266 2.607422 -158.593307 29.159697 -10.483184 -11.356234 -18.789063 7.001954 -1.582031 51.063168 8.107644 2.471410 -70.615234 -20.449217 -44.443359 2.000000 -2.000000 0.000000 -63.574219 2.890625 -13.476562 -58.305637 -1.257268 -2.152966 14.921283 61.633614 2.540745 -2.000000 2.000000 0.000000 90.107422 -30.771481 -52.431637 134.136734 -2.527759 -2.500485 25.688187 -37.697735 -20.049799 -1.776542 2.283308 14.058770 16.828676 -5.598122 -1.591105 -16.507166 7.254484 -0.801347 -24.781893 -14.818151 -30.681595 31.284721 4.350135 2.550408 -3.477250 -16.085978 -2.058732 
3.209910 51.411392 0.402581 -8.447266 2.607422 -159.647995 29.543337 -10.533738 -11.614186 -18.789061 7.187500 -1.727294 51.063168 8.107644 2.471410 -71.044922 -20.703125 -43.837891 2.000000 -2.000000 0.000000 -63.652344 2.226563 -14.735949 -59.185638 -1.230293 -2.193654 15.593778 60.647949 2.923519 -2.000000 2.000000 0.000000 90.605469 -29.970703 -53.354492 134.312256 -2.528325 -2.490740 26.720804 -37.433666 -20.525743 -0.975012 2.725889 14.954276 15.943570 -5.100966 -1.588743 -16.331970 6.779829 -1.208919 -27.008867 -14.135395 -32.468185 28.821762 4.452156 2.405381 -6.942333 -16.233315 -2.853005 
3.640286 51.308971 -0.432303 -8.457031 2.773438 -160.556168 29.770357 -10.417967 -12.177156 -18.779297 7.353516 -1.854219 51.063168 8.107644 2.471410 -71.445313 -20.800779 -43.085941 2.000000 -2.000000 0.000000 -63.408203 1.132813 -15.351563 -60.062366 -1.373482 -2.469110 16.367260 60.006489 3.325560 -2.000000 2.000000 0.000000 90.595703 -29.384766 -53.618076 134.487976 -2.547823 -2.491873 27.546829 -37.604248 -20.685574 0.136060 3.512687 16.077631 15.629042 -5.088044 -1.570830 -16.770790 6.199222 -2.039004 -27.282923 -13.560368 -34.417595 26.184462 4.657149 1.711594 -8.259541 -14.990790 -4.244728 
4.101398 51.175041 -1.384954 -8.457031 2.949219 -161.278793 29.646084 -10.312671 -12.712736 -18.583982 7.685547 -1.942053 51.063168 8.107644 2.471410 -71.708984 -21.093748 -42.207031 2.000000 -2.000000 0.000000 -63.876953 0.205078 -15.654299 -60.939659 -1.164782 -2.412802 16.574884 59.423855 3.776784 -2.000000 2.000000 0.000000 89.863281 -28.505859 -53.500755 134.316437 -2.354663 -2.617141 28.127338 -37.220818 -21.052660 1.210556 4.316816 17.005051 15.078671 -5.104622 -1.507645 -17.309217 5.444106 -2.804261 -26.149837 -13.119333 -37.194935 23.010511 4.832605 1.406657 -8.979403 -13.230943 -5.834436 
4.593730 51.033241 -2.430018 -8.457031 2.949219 -161.806137 29.703167 -10.349793 -13.344267 -18.378906 8.193360 -1.982422 51.063168 8.107644 2.471410 -71.738281 -21.269527 -41.435547 2.000000 -2.000000 0.000000 -63.710938 -0.878906 -16.191408 -61.819401 -1.137235 -2.443740 16.609732 59.170406 3.677208 -2.000000 2.000000 0.000000 89.267578 -27.626953 -53.090466 134.136444 -2.538074 -2.491307 28.609200 -37.342869 -21.395479 2.780698 5.319268 18.148272 14.400190 -5.123911 -1.442906 -17.421156 4.686913 -3.383973 -25.262434 -12.126007 -38.933922 21.272625 4.803223 1.967842 -10.405704 -12.363469 -6.212844 
